<svg width="26" height="26" viewBox="0 0 26 26" fill="none" xmlns="http://www.w3.org/2000/svg">
<path d="M6.91471 25.6211C6.28429 26.1123 5.64017 26.1259 4.98235 25.662C4.32452 25.1982 4.10525 24.5843 4.32452 23.8203L6.66802 16.2485L0.706493 12.0329C0.0486696 11.5691 -0.149774 10.9551 0.111163 10.1911C0.371003 9.42715 0.898359 9.04516 1.69323 9.04516H9.05264L11.4372 1.18692C11.5743 0.804923 11.787 0.511331 12.0753 0.306144C12.3626 0.102048 12.6707 0 12.9996 0C13.3285 0 13.6366 0.102048 13.9238 0.306144C14.2122 0.511331 14.4249 0.804923 14.5619 1.18692L16.9465 9.04516H24.3059C25.1008 9.04516 25.6287 9.42715 25.8896 10.1911C26.1495 10.9551 25.9505 11.5691 25.2927 12.0329L19.3311 16.2485L21.6746 23.8203C21.8939 24.5843 21.6746 25.1982 21.0168 25.662C20.359 26.1259 19.7149 26.1123 19.0844 25.6211L12.9996 20.9962L6.91471 25.6211Z" fill="#E5E5E5"/>
</svg>
